# xmcd
#
# Track frame offsets:
#	150
#	20872
#	36127
#	53657
#	68962
#	82342
#	95470
#	111382
#	130340
#	146320
#	162952
#	183737
#	211050
#	225045
#	246440
#
# Disc length: 3523 seconds
#
# Revision: 0
# Processed by: cddbd v1.5.1PL0 Copyright (c) Steve Scherf et al.
# Submitted via: dBpowerAMP V4.0
#
DISCID=d30dc10f
DTITLE=Roberto Carlos - 84 Canciones De Amor
DYEAR=1900
DGENRE=Balada
TTITLE0=Yo Te Recuerdo
TTITLE1=Inolvidable
TTITLE2=Hablando En Serio
TTITLE3=Como Es Grande Mi Amor Por Ti
TTITLE4=Solamente Una Vez
TTITLE5=El Jardín Del Vecino
TTITLE6=Amigo
TTITLE7=Lady Laura
TTITLE8=Carnavalito
TTITLE9=Por Fin Mañana
TTITLE10=Necesito Llamar Tu Atención
TTITLE11=La Guerra De Los Niños
TTITLE12=El Progreso
TTITLE13=Si Tú Te Vas, Yo También
TTITLE14=Viviendo Por Vivir
EXTD=
EXTT0=
EXTT1=
EXTT2=
EXTT3=
EXTT4=
EXTT5=
EXTT6=
EXTT7=
EXTT8=
EXTT9=
EXTT10=
EXTT11=
EXTT12=
EXTT13=
EXTT14=
PLAYORDER=
